<?xml version="1.0" standalone="no"?>
<!DOCTYPE svg PUBLIC "-//W3C//DTD SVG 20010904//EN"
 "http://www.w3.org/TR/2001/REC-SVG-20010904/DTD/svg10.dtd">
<svg version="1.0" xmlns="http://www.w3.org/2000/svg"
 width="238.000000pt" height="238.000000pt" viewBox="0 0 238.000000 238.000000"
 preserveAspectRatio="xMidYMid meet">
<metadata>
Created by potrace 1.14, written by Peter Selinger 2001-2017
</metadata>
<g transform="translate(0.000000,238.000000) scale(0.100000,-0.100000)"
fill="#000000" stroke="none">
<path d="M315 2277 c-4 -27 -5 -85 -3 -131 4 -69 10 -95 40 -158 40 -84 140
-198 214 -245 33 -21 44 -34 44 -53 0 -14 3 -34 6 -46 4 -17 -3 -24 -38 -40
-165 -74 -310 -220 -392 -395 -49 -103 -67 -177 -73 -305 -21 -416 264 -770
681 -843 37 -7 278 -11 637 -11 459 0 584 -3 615 -14 63 -21 138 -27 210 -16
37 6 73 14 80 18 8 5 -24 29 -88 67 -139 82 -204 147 -256 256 -40 84 -43 87
-114 129 -117 69 -238 151 -238 160 0 33 156 12 259 -35 29 -14 55 -25 57 -25
2 0 8 18 14 41 17 63 -1 83 -105 114 -96 29 -114 47 -121 117 -21 198 -47 293
-108 402 -127 225 -362 382 -618 412 l-56 7 -12 46 c-24 98 -44 127 -96 146
-171 63 -240 103 -326 186 -47 47 -136 159 -189 239 l-17 25 -7 -48z m85 -128
c100 -136 230 -233 387 -289 34 -12 71 -32 82 -44 11 -11 32 -59 46 -106 98
-310 245 -590 388 -735 60 -61 64 -64 122 -69 243 -25 254 -29 291 -105 24
-50 34 -57 133 -91 67 -23 105 -50 90 -65 -3 -3 -26 3 -50 14 -24 10 -78 27
-120 36 -74 16 -78 16 -138 -5 -93 -31 -195 -50 -306 -58 -88 -5 -95 -7 -55
-13 70 -12 168 -9 250 5 l75 13 35 -31 c19 -17 93 -67 163 -110 l127 -78 39
-82 c46 -95 106 -160 210 -226 39 -25 71 -48 71 -52 0 -11 -57 -10 -126 3
-118 21 -244 107 -309 209 -21 33 -33 40 -108 63 -46 15 -198 84 -338 155
-345 175 -481 218 -717 229 l-124 6 -26 56 c-14 31 -28 60 -30 65 -3 5 39 5
104 0 170 -14 277 -11 307 9 43 28 42 48 -12 149 -101 191 -211 555 -211 698
0 34 -4 41 -43 63 -104 61 -201 176 -237 280 -21 61 -36 167 -24 167 5 -1 29
-28 54 -61z m1265 -1851 c173 -58 174 -58 -544 -58 l-649 0 -49 45 -48 44 598
1 599 0 93 -32z m190 -153 l49 -45 -535 0 c-341 0 -557 4 -595 11 -59 11 -181
54 -198 70 -6 5 255 9 610 9 l619 -1 50 -44z"/>
<path d="M1580 835 c7 -8 24 -15 37 -15 22 0 24 2 13 15 -7 8 -24 15 -37 15
-22 0 -24 -2 -13 -15z"/>
</g>
</svg>
